# xmcd
#
# Track frame offsets:
#	150
#	21948
#	49175
#	68473
#	88413
#	116270
#	140820
#	157818
#	189718
#	218593
#
# Disc length: 3248 seconds
#
# Revision: 1
# Processed by: cddbd v1.5.1PL0 Copyright (c) Steve Scherf et al.
# Submitted via: CDex 1.50Beta5
#
DISCID=870cae0a
DTITLE=青西高嗣 - AO CORNER
DYEAR=1995
DGENRE=Rock
TTITLE0=Yes,I do
TTITLE1=うざってぇ!
TTITLE2=歩き方
TTITLE3=AO corner
TTITLE4=ただの紙きれ
TTITLE5=涙を流した後は
TTITLE6=俺達の時代
TTITLE7=もっともっとやれるんじゃねぇか
TTITLE8=二人ひとつに帰ろう
TTITLE9=Nevertheless alive
EXTD=
EXTT0=
EXTT1=
EXTT2=
EXTT3=
EXTT4=
EXTT5=
EXTT6=
EXTT7=
EXTT8=
EXTT9=
PLAYORDER=
